<svg xmlns="http://www.w3.org/2000/svg" viewBox="0 0 465.1 465.1"><path d="M415.1 465.1H50c-27.6 0-50-22.4-50-50V50C0 22.4 22.4 0 50 0h365.1c27.6 0 50 22.4 50 50v365.1c0 27.6-22.4 50-50 50z" fill="#3cf"/><path d="M304.8 305.3c-5.3 4-10.3 8.4-15.1 13 0 .1-.1.1-.1.2-1 1.1-2.1 2.1-3.1 3.1-2.3 2.4-4.5 4.8-6.6 7.3-2.4 3.2-4.8 6.3-7.4 9.3-20.1 23.5-46.9 41.1-77.4 50 13.9 3.9 28.8 5.9 44.9 6h1c1.7 0 3.3-.1 5-.1 17.1-.5 32.9-3.3 47.4-8.6 15.9-5.8 29.7-14.1 41.5-25.1 11.8-11 21.3-24.2 28.6-39.8 6.4-13.9 10.7-29.2 12.7-46.1-26.6 4.4-50.9 15.2-71.4 30.8zm54.6-170.7c-3.9-7-8.4-13.4-13.4-19.3-4.9-5.7-10.3-10.9-16.2-15.6-12-9.4-25.5-16.5-40.7-21.4-15.1-4.9-31.2-7.3-48.2-7.3-23.7 0-44.9 4.2-63.8 12.5-9.4 4.2-18 9.1-26 14.9h-.1c-.4.3-.9.7-1.3 1-.5.4-1 .8-1.6 1.2-1.1.8-2.2 1.7-3.2 2.6l-1.5 1.2c-1.1.9-2.1 1.8-3.2 2.8-.4.4-.9.8-1.3 1.2-1.5 1.3-2.9 2.7-4.3 4.1l-.3.3c-1.7 1.7-3.4 3.5-5 5.4-1.3 1.5-2.6 3.1-3.9 4.6-.4.5-.9 1.1-1.3 1.6-10.5 13.3-18.7 28.4-24.7 45.4C92.5 189.6 89 211 89 234.1c0 22.5 3.5 43.5 10.4 62.9 6.9 19.5 16.9 36.4 29.9 50.8 6.6 7.4 14.1 13.9 22.3 19.7 34.3-.4 66-11.5 92-30.1-.9 0-1.8.1-2.7.1-15.3 0-28.3-3-38.9-8.9-10.7-5.9-19.3-13.8-26-23.6-6.6-9.8-11.5-20.8-14.5-33.1S157 247 157 234c0-13.6 1.5-26.7 4.5-39.4 1.7-7.1 4-13.7 6.8-20 .5-1.2 1.1-2.4 1.7-3.6 0-.1.1-.1.1-.2.6-1.1 1.1-2.2 1.7-3.3.2-.3.4-.7.6-1 .5-.8.9-1.7 1.4-2.5.7-1.2 1.4-2.3 2.2-3.5 6.6-10 15.3-17.9 26-23.8 10.7-5.9 23.6-8.9 38.9-8.9h2.1c7.6.2 14.9 1.6 21.9 4.1 7.6 2.7 14.5 6.6 20.6 11.5 6.1 4.9 11.1 10.6 15.1 17.1 0 .1.1.1.1.2 8 13 21.9 21.2 37.2 21.2h36.3c-2.1-17.6-7-33.5-14.8-47.3z" fill="#fff"/></svg>